<?xml version="1.0" standalone="no"?>
<!DOCTYPE svg PUBLIC "-//W3C//DTD SVG 20010904//EN"
 "http://www.w3.org/TR/2001/REC-SVG-20010904/DTD/svg10.dtd">
<svg version="1.0" xmlns="http://www.w3.org/2000/svg"
 width="500.000000pt" height="209.000000pt" viewBox="0 0 500.000000 209.000000"
 preserveAspectRatio="xMidYMid meet">

<g transform="translate(0.000000,209.000000) scale(0.100000,-0.100000)"
fill="#000000" stroke="none">
<path d="M2425 1976 c-33 -25 -73 -55 -90 -69 -16 -13 -43 -32 -60 -43 -16
-10 -62 -42 -102 -71 -40 -29 -76 -53 -82 -53 -5 0 -11 -3 -13 -7 -1 -5 -32
-28 -68 -52 -36 -25 -66 -48 -68 -53 -2 -4 -10 -8 -17 -8 -7 0 -15 -4 -17 -9
-3 -7 -31 -27 -106 -76 -9 -5 -25 -18 -36 -28 -12 -10 -37 -28 -56 -40 -19
-11 -48 -31 -63 -44 l-29 -23 131 0 131 0 0 -285 0 -285 40 0 40 0 -2 323 -3
322 -43 3 c-37 3 -40 5 -28 18 8 8 17 14 21 14 3 0 35 21 70 48 35 26 87 63
115 82 108 75 248 174 340 240 63 46 78 48 117 17 15 -13 57 -43 93 -67 36
-24 67 -47 68 -52 2 -4 8 -8 14 -8 6 0 29 -15 52 -33 23 -18 54 -42 70 -52 16
-11 39 -27 51 -35 12 -8 48 -32 80 -53 32 -22 64 -44 71 -50 33 -29 44 -37 52
-37 5 0 15 -7 22 -15 11 -13 6 -15 -34 -15 l-46 0 0 -420 0 -420 40 0 40 0 0
380 0 380 131 0 c116 0 129 2 115 15 -8 8 -18 15 -23 15 -4 0 -20 10 -34 23
-14 12 -32 27 -41 32 -41 25 -125 85 -147 104 -13 12 -27 21 -31 21 -6 0 -56
36 -96 69 -6 5 -30 21 -55 36 -24 16 -46 31 -49 34 -3 3 -27 21 -55 40 -128
87 -180 125 -183 133 -2 4 -8 8 -14 8 -6 0 -29 15 -52 33 -43 35 -79 57 -93
57 -4 0 -35 -20 -68 -44z"/>
<path d="M2341 1643 c-24 -10 -47 -39 -64 -81 -23 -57 -21 -87 7 -149 21 -45
29 -53 61 -59 23 -4 45 -2 59 6 27 14 66 90 66 128 0 39 -28 117 -48 135 -20
18 -61 28 -81 20z"/>
<path d="M2583 1629 c-60 -38 -80 -138 -42 -214 43 -85 124 -86 164 -3 38 80
22 175 -38 216 -40 27 -44 27 -84 1z"/>
<path d="M2107 1406 c-60 -52 -54 -162 12 -216 37 -31 75 -38 101 -17 72 57
65 181 -14 235 -41 28 -64 28 -99 -2z"/>
<path d="M2774 1398 c-44 -46 -54 -69 -54 -125 0 -42 5 -54 31 -81 37 -38 69
-41 110 -11 61 43 80 160 34 212 -14 16 -39 31 -58 33 -27 5 -37 0 -63 -28z"/>
<path d="M2418 1295 c-62 -20 -111 -70 -138 -141 -20 -54 -59 -104 -81 -104
-18 0 -59 -52 -59 -75 0 -72 106 -154 239 -185 66 -16 227 -8 288 14 123 44
205 136 172 194 -7 14 -34 40 -59 57 -36 25 -49 43 -66 90 -37 103 -93 148
-201 159 -29 4 -66 0 -95 -9z"/>
<path d="M3486 1218 c-2 -7 -9 -47 -16 -88 -24 -161 -110 -366 -204 -489 -159
-206 -368 -315 -646 -337 l-85 -6 -24 58 c-72 176 -179 279 -347 335 -49 16
-111 43 -137 59 -56 35 -92 38 -107 10 -28 -53 31 -135 152 -213 67 -43 85
-69 62 -88 -33 -27 -140 19 -248 107 -116 94 -210 234 -270 404 -32 88 -41
100 -72 100 -17 0 -28 -8 -34 -26 -17 -43 -11 -82 25 -192 141 -420 410 -697
761 -784 133 -32 342 -30 476 5 116 31 248 97 338 170 172 139 309 382 366
647 16 77 32 340 20 340 -4 0 -8 -6 -10 -12z"/>
<path d="M890 21 c0 -6 4 -13 10 -16 6 -3 7 1 4 9 -7 18 -14 21 -14 7z"/>
</g>
</svg>
